{"title":"The World's End 2013 READNFO WEBRiP XViD UNiQUE","uid":8886471,"size":1506025505,"categoryP":"video","categoryS":"movies","magnet":"?xt=urn:btih:e405ab9962107701bf6ad904f89d0f4bb6657831&amp;dn=The+World%27s+End+2013+READNFO+WEBRiP+XViD+UNiQUE&amp;tr=udp%3A%2F%2Ftracker.openbittorrent.com%3A80&amp;tr=udp%3A%2F%2Fopen.demonii.com%3A1337&amp;tr=udp%3A%2F%2Ftracker.coppersurfer.tk%3A6969&amp;tr=udp%3A%2F%2Fexodus.desync.com%3A6969","seeders":2,"leechers":0,"uploader":"TeX","files":3,"time":1378474673,"description":"[img]http://i2.cdnds.net/13/19/618x464/movies-the-worlds-end-poster.jpg[/img]\n\nFormat : AVI\nFormat/Info : Audio Video Interleave\nFile size : 1.39 GiB\nDuration : 1h 44mn\nOverall bit rate : 1 909 Kbps\nWriting application : VirtualDubMod 1.5.10.2 (build 2540/release)\nWriting library : VirtualDubMod build 2540/release\n\nVideo\nID : 0\nFormat : MPEG-4 Visual\nFormat profile : Advanced Simple@L5\nFormat settings, BVOP : 2\nFormat settings, QPel : No\nFormat settings, GMC : No warppoints\nFormat settings, Matrix : Default (H.263)\nMuxing mode : Packed bitstream\nCodec ID : XVID\nCodec ID/Hint : XviD\nDuration : 1h 44mn\nBit rate : 1 707 Kbps\nWidth : 720 pixels\nHeight : 304 pixels\nDisplay aspect ratio : 2.35:1\nFrame rate : 25.000 fps\nColor space : YUV\nChroma subsampling : 4:2:0\nBit depth : 8 bits\nScan type : Progressive\nCompression mode : Lossy\nBits/(Pixel*Frame) : 0.312\nStream size : 1.25 GiB (89%)\nWriting library : XviD 64\n\nAudio\nID : 1\nFormat : AC-3\nFormat/Info : Audio Coding 3\nMode extension : CM (complete main)\nFormat settings, Endianness : Big\nCodec ID : 2000\nDuration : 1h 44mn\nBit rate mode : Constant\nBit rate : 192 Kbps\nChannel(s) : 2 channels\nChannel positions : Front: L R\nSampling rate : 44.1 KHz\nBit depth : 16 bits\nCompression mode : Lossy\nStream size : 144 MiB (10%)\nAlignment : Split accross interleaves\nInterleave, duration : 40 ms (1.00 video frame)\nInterleave, preload duration : 500 ms\n\n\n","torrent":{"xt":"urn:btih:e405ab9962107701bf6ad904f89d0f4bb6657831","amp;dn":"The+World%27s+End+2013+READNFO+WEBRiP+XViD+UNiQUE","amp;tr":["udp%3A%2F%2Ftracker.openbittorrent.com%3A80","udp%3A%2F%2Fopen.demonii.com%3A1337","udp%3A%2F%2Ftracker.coppersurfer.tk%3A6969","udp%3A%2F%2Fexodus.desync.com%3A6969"],"infoHash":"e405ab9962107701bf6ad904f89d0f4bb6657831","infoHashBuffer":{"type":"Buffer","data":[228,5,171,153,98,16,119,1,191,106,217,4,248,157,15,75,182,101,120,49]},"announce":[],"urlList":[]}}